<svg width="77" height="86" viewBox="0 0 77 86" fill="none" xmlns="http://www.w3.org/2000/svg">
<path d="M17.5237 10.357L0 20.6909L0.0231183 27.2796V33.8683L12.2527 41.0118L24.5054 48.1323V57.3796C24.5054 62.4656 24.4129 66.5807 24.3204 66.5344C24.228 66.4882 21.3151 64.7543 17.8473 62.6506L11.5591 58.8592V53.1489V47.4387L6.31129 44.4796C3.39839 42.8613 0.80914 41.3817 0.531721 41.1968L0 40.8731V53.0796V65.3092L17.5005 75.5968C27.1178 81.2608 35.1398 85.9076 35.3016 85.9538C35.5559 86.0231 35.6022 82.1624 35.5559 63.8758L35.4866 41.7285L23.5344 34.5618C16.9457 30.6086 11.5823 27.3489 11.5591 27.2796C11.5591 27.164 23.8118 19.6506 24.3204 19.4656C24.4129 19.4194 24.5054 21.3151 24.5054 23.65V27.9269L29.8688 31.1403C32.8049 32.8973 35.3016 34.3538 35.4172 34.4C35.5097 34.4463 35.6022 26.7247 35.6022 17.2462C35.6022 3.58334 35.5328 0 35.3247 0.0231247C35.1629 0.0231247 27.1409 4.69302 17.5237 10.357Z" fill="black"/>
<path d="M40.6888 43C40.6888 66.65 40.7581 86 40.8506 86C40.9431 86 49.0576 81.3532 58.8829 75.6661L76.7533 65.3091L76.7071 55.6226L76.6377 45.936L74.1641 44.5258C72.8001 43.7629 71.6673 43.0694 71.6673 43C71.6673 42.9306 72.8001 42.2371 74.1641 41.4742L76.6377 40.064L76.7071 30.3774L76.7533 20.6909L58.8829 10.3339C49.0576 4.64677 40.9431 0 40.8506 0C40.7581 0 40.6888 19.35 40.6888 43ZM58.3743 23.3495L64.963 27.164V31.672L64.9399 36.1801L59.0678 39.5323C55.8313 41.3817 53.1958 42.9306 53.1958 43C53.1958 43.0694 55.8313 44.6183 59.0678 46.4677L64.9399 49.8199L64.963 54.328V58.836L58.3743 62.6505C54.7447 64.7543 51.67 66.4882 51.5544 66.5344C51.3925 66.5806 51.3232 58.0962 51.3232 43C51.3232 27.9038 51.3925 19.4194 51.5544 19.4656C51.67 19.4887 54.7447 21.2457 58.3743 23.3495Z" fill="black"/>
</svg>
